PathFileType	4	(X/Y/Z)	 New Session 102.trc
DataRate	CameraRate	NumFrames	NumMarkers	Units	OrigDataRate	OrigDataStartFrame	OrigNumFrames
100	100	14	14	m	100	152	302
Frame#	Time	C7			T8			IJ			PX			AA			AC			AI			TS			SC			GH			LE			ME			US			RS			
		X1	Y1	Z1	X2	Y2	Z2	X3	Y3	Z3	X4	Y4	Z4	X5	Y5	Z5	X6	Y6	Z6	X7	Y7	Z7	X8	Y8	Z8	X9	Y9	Z9	X10	Y10	Z10	X11	Y11	Z11	X12	Y12	Z12	X13	Y13	Z13	X14	Y14	Z14	
152	1.5200	0.024687	0.104391	0.157731	0.030647	-0.110642	0.229813	-0.000043	0.000577	-0.005157	0.000828	-0.141496	-0.072572	0.223215	0.009287	0.133781	0.169471	0.050755	0.065232	0.109115	0.028087	0.195709	0.113356	-0.090557	0.225900	0.024783	0.009046	-0.001088	0.232514	0.022432	0.093474	0.320896	-0.245675	0.002515	0.247704	-0.297844	0.038519	0.399610	-0.488347	-0.102115	0.326193	-0.497143	-0.136921	
153	1.5300	0.024736	0.104394	0.157729	0.030694	-0.110642	0.229824	-0.000023	0.000580	-0.005156	0.000840	-0.141495	-0.072572	0.223258	0.009276	0.133764	0.169492	0.050747	0.065215	0.109160	0.028083	0.195709	0.113391	-0.090553	0.225899	0.024775	0.009053	-0.001086	0.232546	0.022423	0.093444	0.320872	-0.245676	0.002498	0.247718	-0.297858	0.038499	0.399626	-0.488353	-0.102134	0.326248	-0.497110	-0.136977	
154	1.5400	0.024777	0.104388	0.157732	0.030743	-0.110656	0.229840	-0.000003	0.000583	-0.005156	0.000844	-0.141485	-0.072580	0.223296	0.009260	0.133747	0.169513	0.050729	0.065198	0.109205	0.028076	0.195709	0.113427	-0.090549	0.225897	0.024745	0.009085	-0.001088	0.232580	0.022408	0.093411	0.320894	-0.245684	0.002469	0.247734	-0.297884	0.038485	0.399642	-0.488367	-0.102142	0.326308	-0.497073	-0.137043	
155	1.5500	0.024804	0.104381	0.157743	0.030794	-0.110676	0.229860	0.000016	0.000587	-0.005155	0.000849	-0.141466	-0.072596	0.223327	0.009248	0.133728	0.169530	0.050711	0.065181	0.109249	0.028071	0.195708	0.113466	-0.090544	0.225896	0.024719	0.009128	-0.001093	0.232610	0.022400	0.093381	0.320972	-0.245693	0.002427	0.247755	-0.297908	0.038475	0.399655	-0.488384	-0.102144	0.326363	-0.497038	-0.137110	
156	1.5600	0.024814	0.104384	0.157759	0.030845	-0.110688	0.229880	0.000035	0.000591	-0.005155	0.000864	-0.141443	-0.072619	0.223354	0.009246	0.133710	0.169545	0.050707	0.065166	0.109292	0.028071	0.195708	0.113506	-0.090537	0.225893	0.024717	0.009164	-0.001098	0.232633	0.022402	0.093355	0.321090	-0.245701	0.002376	0.247779	-0.297920	0.038473	0.399662	-0.488400	-0.102150	0.326403	-0.497015	-0.137166	
157	1.5700	0.024811	0.104401	0.157777	0.030897	-0.110685	0.229900	0.000055	0.000595	-0.005155	0.000888	-0.141428	-0.072638	0.223383	0.009255	0.133695	0.169565	0.050718	0.065153	0.109336	0.028073	0.195708	0.113548	-0.090529	0.225891	0.024742	0.009183	-0.001100	0.232653	0.022408	0.093338	0.321219	-0.245705	0.002323	0.247806	-0.297919	0.038481	0.399663	-0.488413	-0.102167	0.326418	-0.497011	-0.137198	
158	1.5800	0.024802	0.104429	0.157790	0.030948	-0.110670	0.229920	0.000075	0.000600	-0.005155	0.000911	-0.141424	-0.072644	0.223420	0.009271	0.133682	0.169590	0.050734	0.065143	0.109383	0.028075	0.195707	0.113590	-0.090519	0.225889	0.024786	0.009183	-0.001096	0.232675	0.022412	0.093328	0.321322	-0.245703	0.002274	0.247832	-0.297909	0.038495	0.399660	-0.488424	-0.102195	0.326403	-0.497029	-0.137199	
159	1.5900	0.024804	0.104458	0.157798	0.030997	-0.110648	0.229942	0.000095	0.000605	-0.005154	0.000925	-0.141427	-0.072640	0.223465	0.009285	0.133668	0.169618	0.050745	0.065133	0.109433	0.028077	0.195703	0.113631	-0.090509	0.225886	0.024835	0.009168	-0.001094	0.232701	0.022415	0.093321	0.321379	-0.245690	0.002237	0.247856	-0.297895	0.038508	0.399657	-0.488432	-0.102231	0.326361	-0.497066	-0.137173	
160	1.6000	0.024838	0.104472	0.157800	0.031043	-0.110629	0.229961	0.000115	0.000610	-0.005153	0.000932	-0.141431	-0.072631	0.223511	0.009295	0.133649	0.169644	0.050751	0.065122	0.109483	0.028083	0.195695	0.113671	-0.090497	0.225885	0.024874	0.009149	-0.001097	0.232729	0.022422	0.093311	0.321382	-0.245666	0.002214	0.247874	-0.297883	0.038512	0.399654	-0.488439	-0.102266	0.326302	-0.497114	-0.137129	
161	1.6100	0.024897	0.104471	0.157801	0.031088	-0.110616	0.229974	0.000135	0.000616	-0.005152	0.000939	-0.141429	-0.072620	0.223553	0.009306	0.133626	0.169671	0.050759	0.065112	0.109528	0.028094	0.195687	0.113708	-0.090485	0.225884	0.024894	0.009148	-0.001102	0.232759	0.022432	0.093295	0.321341	-0.245637	0.002202	0.247885	-0.297874	0.038507	0.399647	-0.488446	-0.102296	0.326238	-0.497163	-0.137079	
162	1.6200	0.024951	0.104467	0.157807	0.031129	-0.110607	0.229983	0.000156	0.000622	-0.005150	0.000951	-0.141421	-0.072606	0.223590	0.009321	0.133603	0.169699	0.050771	0.065107	0.109568	0.028109	0.195681	0.113742	-0.090474	0.225885	0.024894	0.009170	-0.001104	0.232787	0.022445	0.093275	0.321285	-0.245612	0.002196	0.247889	-0.297868	0.038494	0.399635	-0.488455	-0.102318	0.326178	-0.497207	-0.137032	
163	1.6300	0.024983	0.104471	0.157817	0.031162	-0.110597	0.229991	0.000176	0.000629	-0.005147	0.000970	-0.141407	-0.072589	0.223623	0.009337	0.133584	0.169725	0.050782	0.065104	0.109603	0.028125	0.195680	0.113772	-0.090462	0.225887	0.024898	0.009192	-0.001104	0.232809	0.022458	0.093255	0.321252	-0.245601	0.002190	0.247889	-0.297866	0.038482	0.399620	-0.488468	-0.102330	0.326128	-0.497244	-0.136994	
164	1.6400	0.025005	0.104479	0.157829	0.031189	-0.110584	0.230004	0.000195	0.000635	-0.005144	0.000992	-0.141397	-0.072570	0.223654	0.009348	0.133571	0.169747	0.050787	0.065100	0.109633	0.028137	0.195686	0.113799	-0.090451	0.225890	0.024929	0.009193	-0.001111	0.232818	0.022471	0.093244	0.321264	-0.245608	0.002180	0.247888	-0.297870	0.038478	0.399605	-0.488488	-0.102333	0.326088	-0.497272	-0.136966	
165	1.6500	0.025032	0.104483	0.157840	0.031217	-0.110573	0.230020	0.000214	0.000641	-0.005139	0.001008	-0.141400	-0.072549	0.223682	0.009350	0.133563	0.169760	0.050781	0.065098	0.109659	0.028138	0.195692	0.113822	-0.090441	0.225895	0.024989	0.009173	-0.001124	0.232815	0.022484	0.093240	0.321318	-0.245633	0.002166	0.247885	-0.297880	0.038485	0.399591	-0.488515	-0.102323	0.326058	-0.497294	-0.136949	
